<svg fill="#000000" xmlns="http://www.w3.org/2000/svg"  viewBox="0 0 50 50" width="40px" height="40px"><path fill="none" stroke="#000000" stroke-linecap="round" stroke-linejoin="round" stroke-miterlimit="10" stroke-width="5" d="M47.042,8.538l-5.766,4.301c-8.945-7.244-19.887-7.766-27.673,0.579c-6.381,6.839-5.677,17.411,1.572,23.614	c5.8,4.963,14.641,4.551,19.747-0.921c4.085-4.378,3.998-11.639-0.245-16.033c-3.828-3.965-9.844-5.332-14.219-0.684	c-2.628,2.792-2.592,7.863,0.137,10.664c1.809,1.857,5.311,2.888,7.52,0.758c1.458-1.406,1.23-4.375-0.547-5.469"/><polyline fill="none" stroke="#000000" stroke-linejoin="round" stroke-miterlimit="10" stroke-width="5" points="24.5,40.5 2.958,40.5 9.247,22.954"/></svg>