<?xml version="1.0" encoding="UTF-8"?>
<svg xmlns:xlink="http://www.w3.org/1999/xlink" xmlns="http://www.w3.org/2000/svg" width="16px" height="16px" viewBox="0 0 16 16" version="1.1">
    <g id="surface1" transform="rotate(45) translate(3 -8)">
        <path style=" stroke:none;fill-rule:nonzero;fill:rgb(0%,0%,0%);fill-opacity:1;"
              d="M 8 5.359375 C 6.535156 5.359375 5.347656 6.535156 5.347656 7.988281 C 5.347656 9.441406 6.535156 10.617188 8 10.617188 C 9.464844 10.617188 10.652344 9.441406 10.652344 7.988281 C 10.652344 6.535156 9.464844 5.359375 8 5.359375 Z M 8 7.484375 C 8.28125 7.484375 8.507812 7.710938 8.507812 7.988281 C 8.507812 8.265625 8.28125 8.492188 8 8.492188 C 7.71875 8.492188 7.492188 8.265625 7.492188 7.988281 C 7.492188 7.710938 7.71875 7.484375 8 7.484375 Z M 8 7.484375 "/>
        <path style=" stroke:none;fill-rule:nonzero;fill:rgb(0%,0%,0%);fill-opacity:1;"
              d="M 8.003906 0 L 7.058594 3.085938 L 6.113281 6.160156 L 6.113281 6.167969 L 6.125 6.167969 L 7.230469 6.820312 L 8.078125 7.359375 L 8.949219 6.796875 L 9.882812 6.167969 L 9.894531 6.167969 L 9.890625 6.164062 L 9.894531 6.160156 L 9.890625 6.160156 L 8.949219 3.085938 Z M 8.003906 0 "/>
        <path style=" stroke:none;fill-rule:nonzero;fill:rgb(30.196078%,30.196078%,30.196078%);fill-opacity:1;"
              d="M 8.003906 0.00390625 L 8.042969 7.382812 L 8.949219 6.796875 L 9.882812 6.167969 L 9.894531 6.167969 L 9.890625 6.164062 L 9.894531 6.160156 L 9.890625 6.160156 L 8.949219 3.085938 Z M 8.003906 0.00390625 "/>
        <path style=" stroke:none;fill-rule:nonzero;fill:rgb(0%,0%,0%);fill-opacity:1;"
              d="M 8.003906 16.003906 L 8.949219 12.921875 L 9.890625 9.84375 L 9.894531 9.84375 L 9.890625 9.84375 L 9.894531 9.835938 L 9.882812 9.835938 L 8.777344 9.183594 L 7.929688 8.648438 L 7.058594 9.210938 L 6.125 9.835938 L 6.113281 9.835938 L 6.113281 9.84375 L 7.058594 12.921875 Z M 8.003906 16.003906 "/>
        <path style=" stroke:none;fill-rule:nonzero;fill:rgb(30.196078%,30.196078%,30.196078%);fill-opacity:1;"
              d="M 8.003906 16 L 7.964844 8.625 L 7.058594 9.210938 L 6.125 9.835938 L 6.113281 9.835938 L 6.113281 9.84375 Z M 8.003906 16 "/>
        <path style=" stroke:none;fill-rule:nonzero;fill:rgb(0%,0%,0%);fill-opacity:1;"
              d="M 16.007812 8.03125 L 12.902344 7.082031 L 9.804688 6.132812 L 9.796875 6.132812 L 9.796875 6.144531 L 9.132812 7.234375 L 8.585938 8.074219 L 9.148438 8.941406 L 9.777344 9.867188 L 9.777344 9.878906 L 9.785156 9.878906 L 12.894531 8.957031 Z M 16.007812 8.03125 "/>
        <path style=" stroke:none;fill-rule:nonzero;fill:rgb(30.196078%,30.196078%,30.196078%);fill-opacity:1;"
              d="M 16.003906 8.035156 L 8.5625 8.039062 L 9.148438 8.941406 L 9.777344 9.867188 L 9.777344 9.878906 L 9.785156 9.878906 Z M 16.003906 8.035156 "/>
        <path style=" stroke:none;fill-rule:nonzero;fill:rgb(0%,0%,0%);fill-opacity:1;"
              d="M -0.00390625 8.019531 L 3.109375 8.949219 L 6.214844 9.878906 L 6.222656 9.878906 L 6.222656 9.867188 L 6.878906 8.773438 L 7.417969 7.929688 L 6.851562 7.066406 L 6.214844 6.144531 L 6.214844 6.132812 L 6.207031 6.132812 L 3.105469 7.074219 Z M -0.00390625 8.019531 "/>
        <path style=" stroke:none;fill-rule:nonzero;fill:rgb(30.196078%,30.196078%,30.196078%);fill-opacity:1;"
              d="M 0 8.019531 L 7.441406 7.964844 L 6.851562 7.066406 L 6.214844 6.144531 L 6.214844 6.132812 L 6.207031 6.132812 L 3.105469 7.074219 Z M 0 8.019531 "/>
    </g>
</svg>
